<svg width="0" height="0" class="hidden">
  <symbol fill="none" xmlns="http://www.w3.org/2000/svg" viewBox="0 0 24 24" id="Calling">
    <path opacity="0.4" d="M14.353 2.5C18.054 2.911 20.978 5.831 21.393 9.532" stroke="#FF5722" stroke-width="1.5" stroke-linecap="round" stroke-linejoin="round"></path>
    <path opacity="0.4" d="M14.353 6.04297C16.124 6.38697 17.508 7.77197 17.853 9.54297" stroke="#FF5722" stroke-width="1.5" stroke-linecap="round" stroke-linejoin="round"></path>
    <path fill-rule="evenodd" clip-rule="evenodd" d="M11.0315 12.4724C15.0205 16.4604 15.9254 11.8467 18.4653 14.3848C20.9138 16.8328 22.3222 17.3232 19.2188 20.4247C18.8302 20.737 16.3613 24.4943 7.68447 15.8197C-0.993406 7.144 2.76157 4.67244 3.07394 4.28395C6.18377 1.17385 6.66682 2.58938 9.11539 5.03733C11.6541 7.5765 7.04254 8.48441 11.0315 12.4724Z" stroke="#FF5722" stroke-width="1.5" stroke-linecap="round" stroke-linejoin="round"></path>
  </symbol>
  <symbol fill="none" xmlns="http://www.w3.org/2000/svg" viewBox="0 0 24 24" id="linkedin">
    <path d="M20.447 20.452H16.893V14.883C16.893 13.555 16.866 11.846 15.041 11.846C13.188 11.846 12.905 13.291 12.905 14.785V20.452H9.351V9H12.765V10.561H12.811C13.288 9.661 14.448 8.711 16.181 8.711C19.782 8.711 20.448 11.081 20.448 14.166V20.452H20.447ZM5.337 7.433C4.193 7.433 3.274 6.507 3.274 5.368C3.274 4.23 4.194 3.305 5.337 3.305C6.477 3.305 7.401 4.23 7.401 5.368C7.401 6.507 6.476 7.433 5.337 7.433ZM7.119 20.452H3.555V9H7.119V20.452ZM22.225 0H1.771C0.792 0 0 0.774 0 1.729V22.271C0 23.227 0.792 24 1.771 24H22.222C23.2 24 24 23.227 24 22.271V1.729C24 0.774 23.2 0 22.222 0H22.225Z" fill="#FF5722"></path>
  </symbol>
  <symbol fill="none" xmlns="http://www.w3.org/2000/svg" viewBox="0 0 24 24" id="Location">
    <path fill-rule="evenodd" clip-rule="evenodd" d="M4.23901 10.3912C4.25342 6.15065 7.70278 2.72465 11.9434 2.73906C16.1839 2.75347 19.6099 6.20282 19.5955 10.4434V10.5304C19.5434 13.2869 18.0042 15.8347 16.1173 17.826C15.0381 18.9466 13.833 19.9387 12.526 20.7825C12.1765 21.0848 11.6581 21.0848 11.3086 20.7825C9.36008 19.5143 7.64995 17.9131 6.2564 16.0521C5.01436 14.4293 4.30918 12.4597 4.23901 10.4173L4.23901 10.3912Z" stroke="#FF5722" stroke-width="1.5" stroke-linecap="round" stroke-linejoin="round"></path>
    <circle opacity="0.4" cx="11.9172" cy="10.539" r="2.46087" stroke="#FF5722" stroke-width="1.5" stroke-linecap="round" stroke-linejoin="round"></circle>
  </symbol>
  <symbol fill="none" xmlns="http://www.w3.org/2000/svg" viewBox="0 0 24 24" id="Message">
    <path opacity="0.4" d="M17.2678 8.56104L13.0024 11.9953C12.1952 12.6282 11.0636 12.6282 10.2564 11.9953L5.95435 8.56104" stroke="#FF5722" stroke-width="1.5" stroke-linecap="round" stroke-linejoin="round"></path>
    <path fill-rule="evenodd" clip-rule="evenodd" d="M6.88787 3H16.3158C17.6752 3.01525 18.969 3.58993 19.896 4.5902C20.823 5.59048 21.3022 6.92903 21.222 8.29412V14.822C21.3022 16.1871 20.823 17.5256 19.896 18.5259C18.969 19.5262 17.6752 20.1009 16.3158 20.1161H6.88787C3.96796 20.1161 2 17.7407 2 14.822V8.29412C2 5.37545 3.96796 3 6.88787 3Z" stroke="#FF5722" stroke-width="1.5" stroke-linecap="round" stroke-linejoin="round"></path>
  </symbol>
  <symbol fill="none" xmlns="http://www.w3.org/2000/svg" viewBox="0 0 24 24" id="telegram">
    <g clip-path="url(#clip0_308:4329)">
      <path d="M11.944 3.26667e-05C8.77112 0.0148396 5.73324 1.28566 3.4949 3.53449C1.25656 5.78332 -3.4549e-05 8.82711 7.12435e-10 12C7.12441e-10 15.1826 1.26428 18.2349 3.51472 20.4853C5.76516 22.7357 8.8174 24 12 24C15.1826 24 18.2348 22.7357 20.4853 20.4853C22.7357 18.2349 24 15.1826 24 12C24 8.81743 22.7357 5.76519 20.4853 3.51475C18.2348 1.26431 15.1826 3.26667e-05 12 3.26667e-05C11.9813 -1.08889e-05 11.9627 -1.08889e-05 11.944 3.26667e-05V3.26667e-05ZM16.906 7.22403C17.006 7.22203 17.227 7.24703 17.371 7.36403C17.4667 7.44713 17.5277 7.56311 17.542 7.68903C17.558 7.78203 17.578 7.99503 17.562 8.16103C17.382 10.059 16.6 14.663 16.202 16.788C16.034 17.688 15.703 17.989 15.382 18.018C14.686 18.083 14.157 17.558 13.482 17.116C12.426 16.423 11.829 15.992 10.804 15.316C9.619 14.536 10.387 14.106 11.062 13.406C11.239 13.222 14.309 10.429 14.369 10.176C14.376 10.144 14.383 10.026 14.313 9.96403C14.243 9.90203 14.139 9.92303 14.064 9.94003C13.958 9.96403 12.271 11.08 9.003 13.285C8.523 13.615 8.09 13.775 7.701 13.765C7.273 13.757 6.449 13.524 5.836 13.325C5.084 13.08 4.487 12.951 4.539 12.536C4.566 12.32 4.864 12.099 5.432 11.873C8.93 10.349 11.262 9.34403 12.43 8.85903C15.762 7.47303 16.455 7.23203 16.906 7.22403V7.22403Z" fill="#FF5722"></path>
    </g>
    <defs>
      <clipPath id="clip0_308:4329">
        <rect width="24" height="24" fill="white"></rect>
      </clipPath>
    </defs>
  </symbol>
  <symbol fill="none" xmlns="http://www.w3.org/2000/svg" viewBox="0 0 24 24" id="twitter">
    <path d="M23.953 4.57009C23.0545 4.96569 22.1026 5.22683 21.128 5.34509C22.1541 4.72834 22.9224 3.76113 23.291 2.62209C22.34 3.17709 21.286 3.58109 20.164 3.80609C19.4238 3.01452 18.4429 2.48951 17.3736 2.31259C16.3044 2.13567 15.2067 2.31674 14.2509 2.82768C13.2952 3.33862 12.5349 4.15084 12.0881 5.13821C11.6412 6.12558 11.533 7.23286 11.78 8.28809C7.69 8.09509 4.067 6.13009 1.64 3.16209C1.19879 3.9119 0.968664 4.76711 0.974 5.63709C0.974 7.34709 1.844 8.85009 3.162 9.73309C2.38086 9.70822 1.61697 9.49702 0.934 9.11709V9.17709C0.933557 10.3135 1.32627 11.415 2.04551 12.2948C2.76474 13.1747 3.76621 13.7786 4.88 14.0041C4.1583 14.1975 3.40241 14.2265 2.668 14.0891C2.98412 15.0671 3.59766 15.922 4.42301 16.5346C5.24837 17.1471 6.24435 17.4868 7.272 17.5061C5.53153 18.872 3.38248 19.6134 1.17 19.6111C0.78 19.6111 0.391 19.5881 0 19.5441C2.25571 20.9884 4.87851 21.7551 7.557 21.7531C16.61 21.7531 21.555 14.2571 21.555 7.76809C21.555 7.55809 21.555 7.34809 21.54 7.13809C22.506 6.44295 23.3392 5.57991 24 4.59009L23.953 4.57009Z" fill="#FF5722"></path>
  </symbol>
</svg>